<svg xmlns="http://www.w3.org/2000/svg" viewBox="0 0 256 256" role="img" aria-labelledby="title desc">
  <title id="title">Noizy logo</title>
  <desc id="desc">A yellow circular music streaming mark with a black waveform N.</desc>
  <defs>
    <linearGradient id="noizy-yellow" x1="42" y1="32" x2="214" y2="224" gradientUnits="userSpaceOnUse">
      <stop offset="0" stop-color="#fde047"/>
      <stop offset="0.55" stop-color="#facc15"/>
      <stop offset="1" stop-color="#eab308"/>
    </linearGradient>
    <filter id="soft-shadow" x="-20%" y="-20%" width="140%" height="140%" color-interpolation-filters="sRGB">
      <feDropShadow dx="0" dy="14" stdDeviation="16" flood-color="#000000" flood-opacity="0.32"/>
    </filter>
  </defs>
  <rect width="256" height="256" rx="56" fill="#121212"/>
  <circle cx="128" cy="128" r="88" fill="url(#noizy-yellow)" filter="url(#soft-shadow)"/>
  <path d="M72 164V92c0-8.8 7.2-16 16-16h6.2c6.1 0 11.6 3.5 14.3 8.9l41.8 84.3V92c0-8.8 7.2-16 16-16h1.7c8.8 0 16 7.2 16 16v72c0 8.8-7.2 16-16 16h-6.1c-6.1 0-11.7-3.5-14.4-9L105.7 87v77c0 8.8-7.2 16-16 16H88c-8.8 0-16-7.2-16-16Z" fill="#121212"/>
  <path d="M54 130c11.8-17.7 28.2-17.7 40 0s28.2 17.7 40 0 28.2-17.7 40 0 28.2 17.7 40 0" fill="none" stroke="#121212" stroke-width="12" stroke-linecap="round"/>
  <path d="M62 202h132" stroke="#facc15" stroke-width="10" stroke-linecap="round"/>
</svg>
