<svg xmlns="http://www.w3.org/2000/svg" viewBox="0 0 64 64">
  <rect width="64" height="64" rx="14" fill="#121212"/>
  <circle cx="32" cy="32" r="22" fill="#facc15"/>
  <path d="M18 42V22c0-2.2 1.8-4 4-4h1.6c1.5 0 2.9.9 3.6 2.2L37.6 42V22c0-2.2 1.8-4 4-4h.4c2.2 0 4 1.8 4 4v20c0 2.2-1.8 4-4 4h-1.5c-1.5 0-2.9-.9-3.6-2.2L26.4 22v20c0 2.2-1.8 4-4 4H22c-2.2 0-4-1.8-4-4Z" fill="#121212"/>
  <path d="M14 34c4-5 8-5 12 0s8 5 12 0 8-5 12 0" fill="none" stroke="#121212" stroke-width="4" stroke-linecap="round"/>
</svg>
